<?xml version="1.0" standalone="no"?>
<!DOCTYPE svg PUBLIC "-//W3C//DTD SVG 20010904//EN"
 "http://www.w3.org/TR/2001/REC-SVG-20010904/DTD/svg10.dtd">
<svg version="1.0" xmlns="http://www.w3.org/2000/svg"
 width="310.000000pt" height="308.000000pt" viewBox="0 0 310.000000 308.000000"
 preserveAspectRatio="xMidYMid meet">

<g transform="translate(0.000000,308.000000) scale(0.100000,-0.100000)"
fill="#000000" stroke="none">
<path d="M1025 2436 l-510 -294 0 -602 0 -602 510 -294 c281 -161 517 -293
525 -293 8 0 245 132 525 293 l510 294 0 602 0 602 -510 294 c-280 161 -517
293 -525 293 -8 0 -244 -132 -525 -293z m398 -601 c13 -6 17 -19 17 -61 l0
-54 -27 11 c-59 22 -133 31 -169 19 -28 -10 -34 -16 -34 -40 0 -32 -12 -26
155 -71 21 -6 54 -26 73 -45 33 -33 34 -36 30 -104 -3 -60 -7 -73 -32 -99 -16
-17 -45 -36 -64 -42 -42 -14 -201 -7 -249 11 -32 11 -33 14 -33 66 0 30 2 54
4 54 2 0 20 -7 40 -15 100 -42 197 -39 211 6 10 32 -20 56 -94 74 -120 29
-165 71 -165 154 0 60 27 105 79 132 35 18 53 20 140 16 55 -3 108 -8 118 -12z
m374 -152 l83 -158 0 158 0 157 65 0 65 0 0 -245 0 -245 -74 0 -74 0 -84 160
-83 161 -3 -161 -2 -160 -60 0 -60 0 0 245 0 245 73 0 72 0 82 -157z"/>
</g>
</svg>
